<?xml version="1.0" encoding="UTF-8" standalone="no"?>
<!-- Created with Inkscape (http://www.inkscape.org/) -->

<svg
   xmlns:dc="http://purl.org/dc/elements/1.1/"
   xmlns:cc="http://creativecommons.org/ns#"
   xmlns:rdf="http://www.w3.org/1999/02/22-rdf-syntax-ns#"
   xmlns:svg="http://www.w3.org/2000/svg"
   xmlns="http://www.w3.org/2000/svg"
   xmlns:sodipodi="http://sodipodi.sourceforge.net/DTD/sodipodi-0.dtd"
   xmlns:inkscape="http://www.inkscape.org/namespaces/inkscape"
   width="1024mm"
   height="1024mm"
   viewBox="0 0 3628.3465 3628.3464"
   id="svg4217"
   version="1.1"
   inkscape:version="0.91 r13725"
   sodipodi:docname="beer-logo.svg">
  <defs
     id="defs4219" />
  <sodipodi:namedview
     id="base"
     pagecolor="#ffffff"
     bordercolor="#666666"
     borderopacity="1.0"
     inkscape:pageopacity="0.0"
     inkscape:pageshadow="2"
     inkscape:zoom="0.093823242"
     inkscape:cx="1172.3811"
     inkscape:cy="2619.5475"
     inkscape:document-units="px"
     inkscape:current-layer="layer4"
     showgrid="false"
     inkscape:window-width="1280"
     inkscape:window-height="731"
     inkscape:window-x="0"
     inkscape:window-y="0"
     inkscape:window-maximized="1" />
  <metadata
     id="metadata4222">
    <rdf:RDF>
      <cc:Work
         rdf:about="">
        <dc:format>image/svg+xml</dc:format>
        <dc:type
           rdf:resource="http://purl.org/dc/dcmitype/StillImage" />
        <dc:title></dc:title>
      </cc:Work>
    </rdf:RDF>
  </metadata>
  <g
     inkscape:label="Layer 1"
     inkscape:groupmode="layer"
     id="layer1"
     transform="translate(0,2575.9843)"
     style="display:inline" />
  <g
     inkscape:groupmode="layer"
     id="layer3"
     inkscape:label="Triangle"
     style="display:inline">
    <path
       sodipodi:type="star"
       style="fill:none;fill-opacity:1;fill-rule:nonzero;stroke:#000000;stroke-width:153.55630493;stroke-miterlimit:4;stroke-dasharray:none;stroke-opacity:1"
       id="path4851"
       sodipodi:sides="3"
       sodipodi:cx="1837.3367"
       sodipodi:cy="1798.9597"
       sodipodi:r1="1360.1237"
       sodipodi:r2="895.37366"
       sodipodi:arg1="-0.52287744"
       sodipodi:arg2="0.50153628"
       inkscape:flatsided="true"
       inkscape:rounded="0.1"
       inkscape:randomized="0"
       d="M 3015.7286,1119.7477 C 3133.3715,1323.8512 2071.9358,3159.253 1836.3556,3159.083 1600.7753,3158.9131 541.98859,1321.9819 659.92589,1118.0484 777.86319,914.11487 2898.0856,915.64427 3015.7286,1119.7477 Z"
       inkscape:transform-center-x="-0.49069522"
       inkscape:transform-center-y="339.60596" />
  </g>
  <g
     inkscape:groupmode="layer"
     id="layer2"
     inkscape:label="Beer"
     style="display:inline">
    <path
       style="fill:#000000;fill-opacity:1;stroke:none;stroke-width:10;stroke-miterlimit:4;stroke-dasharray:none;stroke-opacity:1"
       d="m 1834.5432,2506.6169 c 10.0484,-0.9661 53.0896,-2.7558 95.6472,-3.9772 72.3231,-2.0756 93.0541,-3.8806 120.365,-10.4803 4.7287,-1.1426 15.4962,-3.5974 23.928,-5.4548 18.2292,-4.016 37.5632,-11.554 44.9208,-17.5136 7.9406,-6.4322 10.0882,-22.0135 7.5356,-54.6762 -1.1607,-14.8501 -2.6869,-51.138 -3.3919,-80.6398 -0.705,-29.5018 -1.7828,-54.4501 -2.3949,-55.4405 -3.9584,-6.4049 22.9553,-18.8774 77.8619,-36.0835 3.6304,-1.1377 19.5895,-2.061 35.4647,-2.052 30.5858,0.017 39.7677,1.8833 67.5526,13.7281 33.2577,14.1779 51.8424,1.4644 71.9344,-49.2092 6.7413,-17.0021 10.3993,-25.6365 16.8458,-39.7634 17.703,-38.7954 21.9196,-51.0414 33.3036,-96.7219 25.1521,-100.9268 30.9282,-128.6835 35.7827,-171.95 8.082,-72.0307 5.9266,-129.9034 -6.6842,-179.4727 -2.406,-9.4573 -5.0788,-20.6167 -5.9395,-24.7986 -0.8608,-4.182 -4.2879,-13.3706 -7.6158,-20.419 -23.8661,-50.5495 -32.3051,-67.3238 -44.763,-88.9755 -14.0215,-24.3694 -14.114,-24.6369 -11.0517,-31.9658 7.3423,-17.5727 0.9793,-24.3976 -26.4916,-28.4144 -13.5112,-1.9756 -26.627,-2.0054 -56.2832,-0.1281 -21.2668,1.3463 -41.1002,1.8371 -44.0741,1.0907 -4.5299,-1.1369 -7.2437,0.5178 -16.7247,10.1982 -22.6772,23.1538 -24.6588,24.0923 -52.3595,24.7946 l -24.4222,0.6192 -16.5076,-13.4525 c -24.5602,-20.0149 -25.3421,-22.1424 -26.245,-71.4282 -0.8442,-46.0804 1.5744,-65.7214 9.5379,-77.4562 3.7411,-5.513 5.1812,-10.5782 5.1812,-18.2245 0,-6.4359 2.5523,-17.5693 6.5068,-28.3838 7.3642,-20.1392 8.1596,-29.0121 4.3879,-48.9601 -7.428,-39.2876 -37.5826,-73.2127 -84.8882,-95.5025 -24.2701,-11.4357 -40.2659,-14.6232 -72.8133,-14.5093 -27.2527,0.095 -30.5128,-0.3215 -40.0756,-5.1247 -5.7253,-2.8757 -12.9927,-5.2285 -16.1497,-5.2285 -6.7492,0 -7.6754,-0.4519 -39.9206,-19.4798 -39.2419,-23.1564 -65.5159,-29.9627 -115.6111,-29.949 -42.037,0.012 -74.5333,7.5594 -115.8175,26.9008 -21.6746,10.1544 -29.7964,15.6187 -48.5766,32.6816 -12.2832,11.16 -12.696,11.3402 -25.9883,11.3402 -7.4288,0 -18.2548,-1.4405 -24.0579,-3.2008 -38.7963,-11.7694 -82.2451,13.5358 -106.3913,61.9636 -13.2585,26.5913 -27.743,38.4117 -60.7499,49.5763 -31.7584,10.7422 -50.8245,38.3499 -50.8245,73.5936 0,13.566 1.0484,18.4641 6.3088,29.4733 3.4699,7.262 9.6228,17.0725 13.6732,21.8011 4.0504,4.7286 10.1581,13.9172 13.5729,20.4191 5.535,10.539 6.2922,14.3865 6.9808,35.4647 0.7817,23.9313 -0.2792,34.3744 -9.389,92.4231 -5.059,32.2366 -9.3458,67.2522 -14.2512,116.4085 -2.9615,29.6762 -0.708,49.4913 7.4635,65.6265 5.1349,10.1395 18.5013,20.4519 27.8538,21.4895 l 6.0014,0.666 0.9218,288.0162 c 1.2202,381.2566 1.2223,381.4006 5.7601,388.3292 4.8276,7.371 31.073,19.831 51.17,24.293 8.8662,1.9684 19.9893,4.4783 24.7178,5.5775 18.7088,4.3487 53.0567,7.8088 81.6763,8.2277 16.5501,0.2423 51.8536,1.8391 78.4521,3.5484 51.1757,3.2888 158.4738,3.7344 189.145,0.7857 z m -194.5184,-10.4465 c -18.9145,-1.2208 -38.7425,-3.6152 -44.0622,-5.321 l -9.6721,-3.1012 11.1307,-0.1439 c 10.4971,-0.1355 17.8858,-3.7638 17.8858,-8.783 0,-1.0361 2.9933,-0.8405 6.6519,0.4349 5.669,1.9763 7.9714,1.5628 15.583,-2.7985 8.6163,-4.9371 10.589,-5.1263 55.9721,-5.3693 41.7139,-0.2235 47.2706,-0.6621 49.068,-3.874 4.7032,-8.4041 1.0055,-8.7856 -81.4191,-8.4004 -43.5441,0.2036 -90.1443,0.7266 -103.5558,1.1623 -17.351,0.5639 -25.4109,0.011 -27.9419,-1.9136 -4.7868,-3.6414 -12.4995,-3.5466 -13.9261,0.1712 -1.4517,3.7832 0.284,5.5837 5.3828,5.5837 2.1833,0 5.6492,0.9203 7.7019,2.0453 7.3737,4.0407 18.904,8.3075 25.6491,9.4916 10.133,1.7786 22.1454,7.2294 22.1454,10.0487 0,1.6976 -3.1665,2.0303 -10.2096,1.0726 -7.0036,-0.9523 -13.2466,-0.308 -19.8817,2.052 -9.9582,3.542 -33.2958,2.7971 -41.2008,-1.315 -5.1681,-2.6885 -6.9526,-13.4047 -3.3706,-20.2412 2.5579,-4.882 2.5601,-7.338 0.015,-16.795 -3.2948,-12.2457 -2.1492,-56.7903 1.643,-63.876 2.7755,-5.1851 -1.6206,-14.9062 -6.7403,-14.9062 -5.453,0 -6.3216,-2.3358 -6.9592,-18.7145 l -0.567,-14.5639 -8.0587,-1.3099 c -4.4322,-0.7205 -9.1433,-2.3944 -10.4687,-3.72 -1.7148,-1.7146 -2.5988,-41.0371 -3.0635,-136.2685 l -0.6534,-133.8585 -6.4995,-12.6608 c -3.5747,-6.9635 -6.4994,-15.8853 -6.4994,-19.8265 0,-5.7612 -1.2429,-7.8085 -6.3413,-10.4449 -6.5045,-3.3636 -17.3018,-4.4679 -17.3018,-1.7696 0,0.8303 3.024,4.6296 6.7199,8.4429 5.2963,5.4644 6.426,8.1043 5.3325,12.4613 -1.8601,7.4107 -6.1897,6.9628 -14.0889,-1.4575 -7.1226,-7.5925 -11.9623,-19.2817 -10.0485,-24.2691 3.6967,-9.6334 45.2604,4.5844 61.0823,20.8947 9.3082,9.5953 11.1851,10.0927 11.1851,2.9639 0,-7.5561 3.8366,-8.8332 9.7753,-3.2541 4.7596,4.4714 5.271,4.5516 6.6193,1.038 0.8037,-2.0944 -0.143,-8.2844 -2.1039,-13.7556 -1.9608,-5.4712 -3.5603,-13.7024 -3.5544,-18.2913 0.01,-6.6334 -1.4307,-9.7177 -7.0202,-15.0457 -12.1736,-11.6044 -18.8354,-30.2204 -21.0965,-58.9541 -1.0875,-13.8189 -2.8891,-31.8958 -4.0035,-40.1709 -1.1145,-8.275 -2.5306,-32.5741 -3.147,-53.9978 -0.6163,-21.4237 -2.0464,-43.1861 -3.178,-48.3609 -1.1315,-5.1748 -2.6951,-29.7203 -3.4746,-54.5456 -1.1027,-35.1154 -0.7028,-49.75 1.8009,-65.9139 2.1803,-14.0756 2.6016,-23.4345 1.3061,-29.0165 -2.5038,-10.7888 -2.5608,-49.4132 -0.08,-54.0551 1.2126,-2.2688 0.7589,-10.0389 -1.2154,-20.8151 -1.7328,-9.4572 -3.062,-27.4533 -2.9538,-39.9912 0.1575,-18.2661 -0.4742,-23.3531 -3.1789,-25.5977 -2.3176,-1.9235 -2.9589,-4.6977 -2.0464,-8.8526 0.7311,-3.3281 0.1578,-9.2907 -1.274,-13.2499 -1.6495,-4.5618 -2.0659,-11.4983 -1.1366,-18.9357 1.3799,-11.0453 2.0357,-12.0807 11.1293,-17.5734 5.3147,-3.2102 11.0417,-5.8367 12.7266,-5.8367 3.0403,0 6.5791,-1.3538 28.6404,-10.9568 10.8857,-4.7383 11.7475,-4.8093 17.195,-1.4162 24.1868,15.0659 37.2766,19.5854 70.2162,24.2431 46.3806,6.5584 83.2783,2.941 110.0298,-10.7874 16.759,-8.6004 26.1571,-9.4208 46.5643,-4.0645 18.2167,4.7813 58.2117,4.7058 76.613,-0.1446 8.7101,-2.296 19.9587,-7.6616 29.8726,-14.2491 18.6261,-12.3765 24.2828,-13.05 43.6194,-5.1928 21.9262,8.9094 57.5379,5.7856 70.3866,-6.1741 13.5029,-12.5686 21.5474,-12.7936 55.4296,-1.5502 13.9159,4.6178 28.6868,9.0425 32.8243,9.8327 16.1827,3.0904 15.2472,1.5086 13.7792,23.3015 -2.1217,31.4957 -1.5828,61.2093 1.2333,68.008 2.1408,5.1683 2.0251,7.1007 -0.654,10.9257 -2.352,3.3579 -2.9293,7.8013 -2.0812,16.0181 1.0671,10.3391 0.6588,11.8186 -4.4983,16.3028 -4.854,4.2204 -5.4653,6.0356 -4.2389,12.5857 0.7883,4.2098 2.8166,10.9682 4.5073,15.0186 3.5485,8.5014 2.9228,14.8122 -5.319,53.6497 -4.9375,23.2666 -5.3649,28.2888 -3.3891,39.8235 1.5877,9.2689 1.5813,16.5167 -0.021,24.3406 -1.6763,8.1834 -1.6225,12.4474 0.203,16.0603 1.3669,2.7054 2.5636,9.2714 2.6594,14.5911 0.096,5.3197 0.2205,12.0902 0.277,15.0456 0.057,2.9554 -0.5986,9.4694 -1.4559,14.4755 -1.344,7.8489 -0.9083,9.6286 3.1646,12.9267 5.2401,4.2432 5.7332,8.6685 4.9159,44.1177 -0.4589,19.9005 -0.7526,21.1115 -5.5639,22.9408 -5.7203,2.1748 -6.937,9.726 -8.931,55.4298 -0.5795,13.2837 -2.9811,34.0789 -5.3367,46.2116 -2.3556,12.1327 -4.2858,25.0287 -4.2895,28.6579 0,4.9909 -2.2322,8.6718 -9.1413,15.1076 -17.606,16.3998 -24.7003,26.6472 -26.1823,37.8191 -0.9875,7.4439 -0.5042,11.7027 1.6827,14.8247 1.6874,2.4092 2.5785,6.2523 1.9802,8.5401 -1.5673,5.9937 6.1408,5.4558 13.7663,-0.9605 10.0877,-8.4883 31.5541,-20.6609 36.4458,-20.6668 4.0215,-0.01 4.5485,1.1348 4.2755,9.2456 -0.2341,6.9546 -2.0928,11.5003 -7.4875,18.3117 -6.8974,8.7087 -7.8759,16.1052 -1.9721,14.9073 1.9476,-0.3952 2.9341,3.4068 3.3915,13.0696 0.4313,9.1149 -0.1023,13.165 -1.612,12.232 -1.2412,-0.7672 -2.2568,-4.666 -2.2568,-8.664 0,-8.0644 -3.0852,-11.636 -5.228,-6.0522 -0.7588,1.9775 -0.9985,61.214 -0.5326,131.6369 0.4659,70.4228 0.4163,129.2037 -0.1102,130.6242 -1.4855,4.0076 -15.5364,8.0356 -18.3202,5.2519 -1.6357,-1.6357 -0.7063,-2.908 3.2131,-4.3981 9.2389,-3.5127 9.54,-9.582 0.559,-11.27 -2.4874,-0.4675 -4.5882,-2.8365 -4.9857,-5.6221 -1.5616,-10.9455 -8.8788,-3.0252 -8.956,9.6942 -0.06,9.9498 -3.8219,4.3694 -5.0707,-7.5228 -1.3608,-12.9585 -3.2459,-96.1103 -4.4464,-196.1304 -0.8415,-70.1142 -1.681,-74.4734 -16.1055,-83.6289 -5.4292,-3.446 -15.1807,-7.8182 -21.6697,-9.7161 -26.1779,-7.656 -88.1724,-12.3207 -104.7665,-7.8829 -7.8525,2.1 -8.5679,7.299 -1.6297,11.845 4.7425,3.1075 6.7649,3.2749 13.3396,1.1051 11.8887,-3.9236 83.361,0.815 83.361,5.5269 0,1.1821 -3.9814,4.0838 -8.8474,6.4481 -10.037,4.8767 -15.8704,9.3186 -15.8704,12.0847 0,3.4322 6.425,1.9612 14.5543,-3.3321 15.9169,-10.3639 16.4377,-9.838 17.9409,18.1145 2.5333,47.1085 1.98,97.0662 -1.238,111.7675 -1.6819,7.684 -5.0472,23.0763 -7.4784,34.2051 -5.6834,26.0164 -7.4587,62.9638 -4.6548,96.8747 1.4547,17.5943 1.4907,27.5632 0.1044,28.9496 -2.9993,2.9993 -20.789,-7.1204 -22.2809,-12.6747 -0.6531,-2.4318 -1.3153,-11.1918 -1.4712,-19.4669 -0.156,-8.2751 -0.9382,-17.9473 -1.7381,-21.4937 -1.3545,-6.0048 -1.5587,-5.7256 -2.9698,4.0614 -0.8334,5.7802 -1.5301,14.0015 -1.5482,18.2696 -0.038,9.0083 -1.3909,11.542 -8.0272,15.0368 -2.6599,1.4008 -4.8362,4.157 -4.8362,6.1251 0,2.7832 0.5732,3.0052 2.5793,0.9991 3.7161,-3.7161 6.0183,-3.1772 6.0183,1.4088 0,5.6497 -15.1656,6.7251 -95.1098,6.7435 -60.9423,0.015 -74.9061,-1.1967 -61.7946,-5.3581 5.1261,-1.627 5.4497,-3.8919 1.0747,-7.5228 -2.6739,-2.2192 -3.24,-10.4243 -3.3177,-48.0868 -0.052,-24.976 -0.9302,-49.7483 -1.9528,-55.0496 -1.3452,-6.9734 -0.9945,-12.1856 1.2683,-18.8504 1.7201,-5.0666 2.3869,-10.4015 1.4818,-11.8553 -0.9052,-1.4538 -1.8266,-21.9876 -2.0475,-45.6307 -0.5114,-54.734 -1.9555,-88.9162 -3.8359,-90.7964 -0.811,-0.8111 -3.1208,-0.4356 -5.1328,0.8345 -4.1196,2.6003 -4.4117,24.7002 -2.511,189.9079 0.5373,46.6951 0.5096,94.591 -0.061,106.4352 l -1.0381,21.5349 -13.9949,-0.5433 c -7.6971,-0.2988 -33.8229,-0.946 -58.0571,-1.4382 -53.228,-1.0809 -85.9749,-6.1471 -85.9749,-13.3009 0,-3.8049 6.0737,-6.9392 21.1093,-10.8932 9.7775,-2.5714 21.614,-2.9828 59.4922,-2.0683 26.0075,0.6279 52.3642,1.7943 58.5705,2.5921 9.673,1.2432 11.2842,0.9397 11.2842,-2.1263 0,-1.9671 -2.399,-4.4887 -5.3313,-5.6036 -2.9323,-1.1148 -36.6002,-2.1286 -74.8175,-2.2529 -38.2173,-0.1242 -70.5077,-0.8808 -71.7564,-1.6812 -1.2486,-0.8004 -2.9495,-3.6316 -3.7796,-6.2914 -2.0762,-6.653 -5.957,-6.0565 -11.7726,1.8096 -5.6432,7.6327 -18.9459,14.1506 -22.213,10.8836 -2.6323,-2.6324 -0.2605,-6.7824 3.8764,-6.7824 4.5845,0 3.76,-3.3344 -1.7249,-6.9762 -4.6853,-3.111 -4.8306,-4.3207 -5.127,-42.7123 -0.1679,-21.7309 -1.1754,-48.0809 -2.2391,-58.5557 -1.1605,-11.428 -1.1233,-43.0455 0.093,-79.0545 1.2581,-37.2433 1.266,-66.936 0.021,-78.2669 -1.2916,-11.754 -1.2594,-19.0042 0.091,-20.354 3.1416,-3.1417 10.9176,-2.5355 19.4067,1.5126 7.2929,3.4778 11.4802,3.0426 9.0203,-0.9373 -0.6501,-1.052 -5.3413,-3.1516 -10.4247,-4.6656 -15.2896,-4.5538 -18.9147,-6.3691 -18.9147,-9.4716 0,-4.4523 26.3356,-6.7326 77.3774,-6.6998 43.6509,0.027 44.1757,0.083 56.223,5.9349 13.2516,6.4369 40.4981,10.5604 40.4981,6.129 0,-6.7136 -46.3159,-23.2722 -74.1534,-26.5111 -26.149,-3.0422 -77.7226,-1.0498 -96.7219,3.7368 -19.2725,4.8553 -44.2437,17.725 -47.8191,24.6451 -2.153,4.1672 -2.6894,38.0608 -2.5003,158.0173 0.1324,83.9917 0.7399,155.3242 1.3501,158.5164 0.9533,4.987 2.167,5.8041 8.621,5.8041 7.4018,0 7.491,0.1083 6.1183,7.4266 -1.2557,6.693 -0.7592,7.7545 5.0274,10.7468 4.169,2.1559 12.2998,3.326 23.1851,3.3365 9.2204,0.01 22.5677,0.9525 29.6607,2.0967 13.6045,2.1947 70.543,5.6553 130.2519,7.9163 37.2415,1.4102 39.3344,0.9946 39.4918,-7.8446 0.031,-1.754 1.7875,-3.5248 3.9029,-3.9354 3.1581,-0.6129 3.597,0.2459 2.4537,4.801 l -1.3923,5.5473 24.4134,0.013 c 28.2011,0.012 41.0426,2.6095 39.0174,7.8869 -1.2069,3.1451 -1.5549,3.1358 -3.9247,-0.1051 -2.262,-3.0935 -4.5246,-3.2781 -17.3867,-1.4188 -8.1324,1.1755 -20.1305,2.1566 -26.6623,2.1799 l -11.8761,0.043 -0.4255,33.8526 c -0.5589,44.477 3.2372,41.3755 -50.6438,41.3755 -32.8262,0 -40.4918,0.5372 -38.3388,2.6867 2.0893,2.086 29.6042,2.6814 123.046,2.663 112.6716,-0.022 136.2445,1.358 86.0039,5.0362 -34.3712,2.5163 -194.5686,2.8441 -231.3003,0.4732 z m -98.5382,-14.176 c 0.7,-1.8242 0.693,-3.8964 -0.015,-4.605 -1.5308,-1.5308 -7.8403,3.3263 -7.8403,6.0356 0,3.2436 6.5176,2.0567 7.8558,-1.4306 z m 200.6335,-117.0481 c 0,-4.8873 -5.3903,-5.8567 -7.1448,-1.2849 -1.3489,3.5152 0.2363,5.5837 4.279,5.5837 1.5762,0 2.8658,-1.9345 2.8658,-4.2988 z m 94.1927,-31.5252 c -1.0458,-5.3923 -6.0683,-6.1327 -6.0683,-0.8946 0,2.6402 1.3877,4.4779 3.3816,4.4779 2.0016,0 3.0981,-1.4624 2.6867,-3.5833 z m -92.0433,-0.8946 c 0,-5.2381 -5.0226,-4.4977 -6.0684,0.8946 -0.4113,2.1209 0.6852,3.5833 2.6868,3.5833 1.9938,0 3.3816,-1.8377 3.3816,-4.4779 z m 193.4437,-183.5924 c 0,-27.9418 -0.7863,-44.0622 -2.1494,-44.0622 -1.3631,0 -2.1494,16.1204 -2.1494,44.0622 0,27.9419 0.7863,44.0622 2.1494,44.0622 1.3631,0 2.1494,-16.1203 2.1494,-44.0622 z m -138.6347,-96.3495 c 5.9108,-2.7839 12.0743,-6.6664 13.6968,-8.6278 1.6225,-1.9614 5.1266,-3.566 7.7869,-3.566 2.6605,0 9.3125,-1.9798 14.7825,-4.3994 7.2322,-3.1991 9.9454,-5.6196 9.9454,-8.8722 0,-4.8535 -3.1653,-4.7945 -27.4542,0.5124 -13.9209,3.0414 -50.998,21.7319 -50.998,25.7078 0,5.6017 19.7254,5.14 32.2406,-0.7548 z m 233.5067,-1.2165 c -2.6674,-1.69 -11.0463,-0.8596 -11.0463,1.0948 0,0.4533 3.1435,0.8092 6.9854,0.7911 4.7494,-0.022 6.0494,-0.626 4.0609,-1.8859 z m -252.152,-67.5029 c 6.1054,-6.5394 3.6416,-8.5558 -6.6098,-5.4095 -6.5112,1.9984 -8.7973,1.7195 -14.8629,-1.8132 -4.1078,-2.3923 -7.4685,-6.2466 -7.8715,-9.0277 -1.1744,-8.1035 -7.8942,-4.8744 -7.8942,3.7934 0,9.4475 7.8724,15.5052 21.871,16.8292 8.9708,0.8484 11.0437,0.2586 15.3674,-4.3722 z m 137.4574,-34.9448 c 4.8935,-3.4276 6.5022,-12.529 2.6367,-14.9181 -1.1771,-0.7274 -3.2451,1.1024 -4.5956,4.0664 -3.2442,7.1201 -12.4256,9.066 -21.2488,4.5033 -7.3726,-3.8125 -9.8196,-3.1503 -7.8006,2.1112 2.8415,7.4047 22.6261,10.1084 31.0083,4.2372 z m 29.4947,-34.6231 c 9.8627,-5.2112 13.971,-9.5237 13.971,-14.6655 0,-7.7867 -2.2962,-7.6984 -9.9164,0.3813 -7.0794,7.5065 -7.5814,7.6727 -19.0961,6.3194 -13.1746,-1.5485 -14.7861,0.3056 -6.1622,7.0891 6.7091,5.2775 12.4261,5.5136 21.2037,0.8757 z m -408.3082,-67.4309 c 5.5982,-6.1859 6.6455,-25.8102 2.1943,-41.1148 -5.6713,-19.4991 -14.2757,-22.5824 -9.8843,-3.5418 2.9755,12.901 2.7819,34.7417 -0.3356,37.8592 -6.4814,6.4814 -16.1778,0.7425 -18.8632,-11.1644 -1.9671,-8.7214 -1.1158,-15.4725 6.1719,-48.9497 4.2652,-19.5931 4.2902,-27.5803 0.086,-27.5803 -4.3306,0 -17.056,53.1263 -17.056,71.2061 0,10.6111 1.0009,14.2185 5.6285,20.2856 5.1462,6.7471 6.5913,7.3795 16.8619,7.3795 8.5725,0 12.1721,-1.0374 15.1966,-4.3794 z m 84.29,0.8512 c 4.034,-1.6949 3.2318,-5.395 -1.0746,-4.957 -7.5351,0.7665 -9.3605,-0.2491 -13.7165,-7.632 -2.4402,-4.1358 -5.3092,-6.9804 -6.3756,-6.3213 -8.5255,5.269 11.357,23.0318 21.1667,18.9103 z m 123.7265,-13.7025 c 8.1594,-2.4492 12.2215,-6.1114 12.2215,-11.0181 0,-3.9492 -0.2764,-3.9383 -8.6704,0.344 -7.2295,3.6883 -9.9872,4.0598 -16.5929,2.2359 -11.0392,-3.0481 -13.7365,0.5898 -4.5776,6.1736 7.936,4.8381 8.7133,4.938 17.6194,2.2646 z m -55.3269,-9.5818 c 13.1586,-6.5571 19.0005,-15.6186 18.7036,-29.011 -0.1187,-5.3529 -3.757,-23.2735 -8.0853,-39.8237 -4.3281,-16.5502 -8.6868,-35.6195 -9.6859,-42.3762 -0.9991,-6.7567 -3.3455,-14.4678 -5.2143,-17.1359 -3.3405,-4.7692 -3.3973,-4.707 -3.37,3.6874 0.04,12.1001 7.4446,57.8174 12.8776,79.5044 3.8103,15.2095 4.1723,19.5989 2.1267,25.7968 -2.8826,8.7345 -9.3719,13.93 -17.399,13.93 -11.306,0 -12.937,-16.7663 -6.1051,-62.7609 1.8824,-12.6735 2.0963,-20.2251 0.6639,-23.4354 -1.802,-4.0384 -2.7722,-2.0746 -6.5823,13.3254 -14.2929,57.7681 -14.4052,73.2833 -0.5829,80.4311 8.2373,4.2597 10.1967,4.0753 22.653,-2.132 z m 146.0006,-32.8656 c 8.3415,-6.1284 10.7723,-43.1675 4.2473,-64.7156 -4.4517,-14.7011 -8.4602,-12.072 -6.6438,4.3577 3.9632,35.8469 3.9769,37.5952 0.35,44.6088 -4.1037,7.9359 -7.4791,7.761 -11.5529,-0.5981 -4.9724,-10.2034 -5.1849,-27.2051 -0.7005,-56.0727 4.1256,-26.5589 4.0424,-38.0058 -0.1948,-26.7859 -6.7008,17.7437 -10.8103,41.2006 -10.8901,62.162 -0.085,22.3528 1.3137,28.2817 8.3291,35.297 3.511,3.5109 13.2911,4.5125 17.0556,1.7468 z m 76.3028,-9.7248 c 2.9554,-1.4899 5.6816,-4.854 6.0583,-7.4758 0.6692,-4.6588 0.5446,-4.6865 -5.4942,-1.2206 -7.9923,4.5868 -15.291,2.7246 -23.9224,-6.1038 l -6.733,-6.8868 0,6.9539 c 0,14.0996 15.9029,21.8858 30.0913,14.7331 z m -293.6773,-22.3408 c 6.1223,-3.2078 7.1394,-11.0767 1.2347,-9.5523 -1.703,0.4397 -4.7015,1.255 -6.6633,1.8118 -2.1536,0.6114 -5.9136,-1.6214 -9.4901,-5.6354 -6.5408,-7.3409 -9.5115,-8.3769 -9.5115,-3.3171 0,12.6933 13.916,22.2021 24.4302,16.693 z m 109.5475,-6.4111 c 3.5668,-3.5668 1.269,-7.2053 -3.7543,-5.9446 -3.633,0.9119 -6.5308,-0.042 -9.6722,-3.1831 -2.4667,-2.4667 -4.9686,-4.485 -5.5596,-4.485 -2.1895,0 -0.9854,9.9763 1.5045,12.4664 2.742,2.742 15.0771,3.5508 17.4816,1.1463 z m -206.7572,-32.8856 5.0742,-4.2272 -6.6523,-0.072 c -3.85,-0.041 -8.2911,-1.8825 -10.5427,-4.3703 -4.8119,-5.3171 -7.5228,-5.4896 -7.5228,-0.4783 0,5.667 6.1263,13.3745 10.6306,13.3745 2.1664,0 6.2222,-1.9023 9.013,-4.2272 z m 474.2229,-19.5004 c 5.503,-2.2103 7.9981,-6.9486 6.169,-11.7151 -0.986,-2.5695 -2.3175,-2.1137 -6.738,2.3069 -4.4024,4.4023 -6.7926,5.2273 -11.8974,4.1062 -6.6644,-1.4638 -8.2136,0.5522 -3.809,4.9567 2.9979,2.9977 9.3364,3.1322 16.2754,0.3453 z m -346.097,-18.534 c 4.4652,-1.8016 3.0175,-5.0246 -2.2568,-5.0246 -2.719,0 -6.1042,-1.1606 -7.5228,-2.5792 -2.0061,-2.0062 -2.5793,-1.8628 -2.5793,0.6448 0,6.3059 5.8351,9.5915 12.3589,6.959 z m 0.5373,-30.8171 c 6.7936,-6.7935 5.257,-8.5085 -6.3875,-7.1294 -10.0343,1.1885 -11.0892,0.8343 -17.2928,-5.8067 -8.102,-8.6733 -12.9985,-6.3763 -8.6723,4.0682 4.8722,11.7624 24.1689,17.0516 32.3526,8.8679 z m -89.4888,-30.2472 c 3.1148,-2.4502 5.6632,-5.8354 5.6632,-7.5228 0,-4.0213 -1.9925,-3.8762 -6.8249,0.497 -3.2224,2.9163 -4.9267,3.1152 -9.3644,1.0933 -8.2798,-3.7726 -8.6996,-8.2619 -2.4297,-25.9809 9.6259,-27.2028 6.9204,-29.8546 -5.3454,-5.2392 -11.4765,23.0316 -11.7676,25.8422 -3.7328,36.0567 5.3898,6.8519 14.1616,7.2883 22.034,1.0959 z m 308.1256,-3.2243 c 8.1622,-3.5716 14.1497,-11.7587 12.2398,-16.736 -1.9409,-5.0579 -4.2891,-4.384 -9.314,2.6729 -5.1964,7.2975 -15.3206,9.6128 -21.8958,5.0073 -7.3742,-5.1652 -10.0109,0.2461 -3.3604,6.8965 6.1378,6.1378 11.9534,6.7002 22.3304,2.1593 z m 90.1975,-82.0574 c 0.7362,-2.0688 1.7898,-4.5832 2.3412,-5.5879 0.5515,-1.0045 -1.1386,-0.6804 -3.7557,0.7201 -2.617,1.4007 -7.0862,1.9623 -9.9315,1.2482 -6.1873,-1.5528 -6.8897,2.0124 -1.0158,5.156 6.1532,3.2931 10.8507,2.7092 12.3618,-1.5364 z m -316.7153,-12.7171 c 2.8488,-2.8487 1.3322,-5.0152 -3.5106,-5.0152 -2.719,0 -6.02,-1.0764 -7.3356,-2.392 -4.3032,-4.3032 -7.7636,0.207 -3.6481,4.7548 3.6277,4.0084 11.6671,5.4796 14.4943,2.6524 z m -161.9968,-0.6687 c 2.0812,-1.2862 1.6754,-2.0824 -1.5895,-3.1187 -2.4113,-0.7653 -4.9268,-2.8054 -5.59,-4.5337 -1.5304,-3.9884 -5.6394,-4.1089 -5.6394,-0.1653 0,4.1925 9.4046,9.9279 12.8189,7.8178 z m 511.6285,-6.4959 c 4.6437,-4.6436 5.7517,-10.7468 1.951,-10.7468 -1.2912,0 -4.8764,1.9891 -7.9671,4.4202 -3.6453,2.8674 -7.3511,3.9856 -10.5486,3.1831 -5.9943,-1.5045 -6.5326,2.1342 -0.7716,5.2173 6.3719,3.4101 12.5971,2.6654 17.3363,-2.0738 z m -361.4457,-22.7263 c 3.5532,-1.494 7.6089,-4.8623 9.0126,-7.4852 2.4179,-4.5181 2.229,-4.69 -3.5922,-3.2688 -16.8527,4.1146 -17.1873,4.0714 -22.1213,-2.8577 -6.1098,-8.5804 -8.7409,-8.4179 -8.7409,0.5402 0,12.1171 12.4719,18.525 25.4417,13.0715 z m 359.2964,994.2436 c 0,-1.1822 1.8795,-2.1494 4.1769,-2.1494 7.8281,0 10.0774,-6.7201 8.3911,-25.0697 -1.4773,-16.0756 -0.5161,-56.5281 1.5886,-66.8632 1.2048,-5.9158 -4.307,-8.7544 -10.043,-5.1721 -2.3352,1.4583 -4.4143,1.6356 -5.1535,0.4394 -1.357,-2.1954 15.7552,-7.551 17.7509,-5.5554 1.5787,1.5787 1.8863,5.6836 3.6339,48.4867 1.7296,42.3634 0.1779,53.9839 -7.4934,56.1204 -8.0558,2.2437 -12.8515,2.1553 -12.8515,-0.2367 z m -65.4295,-1.0063 c 4.6683,-3.531 15.0886,-4.3463 16.955,-1.3267 1.6551,2.678 -2.5482,4.1102 -12.6563,4.3127 -7.8968,0.1582 -8.1881,-0.045 -4.2987,-2.986 z m 33.9947,-1.1431 c -6.2235,0 -6.8213,-5.3782 -0.9473,-8.5219 6.4775,-3.4666 21.5516,-2.7944 23.0178,1.0265 2.1063,5.4889 -3.5956,10.1694 -10.6658,8.7554 -3.4649,-0.693 -8.5971,-1.26 -11.4047,-1.26 z m -197.2972,-6.4865 c -1.2462,-1.2463 -0.437,-3.7534 2.1311,-6.6016 3.7278,-4.1344 5.6401,-4.4638 19.1861,-3.3042 8.2751,0.7084 30.1303,1.2643 48.5671,1.2354 27.9774,-0.044 33.9878,0.5093 36.3408,3.3446 1.7389,2.0951 2.053,4.1633 0.8197,5.3967 -3.8924,3.8924 -103.1472,3.8266 -107.0448,-0.071 z m 118.0391,-1.0363 c 0,-1.2334 8.4721,-2.4126 19.8817,-2.7674 11.893,-0.3696 19.8817,0.2234 19.8817,1.476 0,1.1515 -3.1434,2.5037 -6.9855,3.0049 -12.2061,1.5922 -32.7779,0.5168 -32.7779,-1.7135 z m -434.1737,-5.3734 c -0.7306,-1.1822 -3.1487,-2.1494 -5.3734,-2.1494 -5.0828,0 -7.6754,-3.9312 -4.6127,-6.9939 2.5728,-2.5728 17.7759,3.2106 22.0832,8.4006 1.9222,2.3161 1.089,2.8921 -4.1842,2.8921 -3.6215,0 -7.1822,-0.9672 -7.9129,-2.1494 z m 541.0603,-6.0452 c -0.4679,-1.4037 0.6807,-2.5523 2.5524,-2.5523 1.8718,0 3.4032,1.5314 3.4032,3.4031 0,3.7957 -4.6271,3.1347 -5.9556,-0.8508 z m -15.5382,-0.4029 c 0,-2.4773 1.4329,-4.2987 3.3816,-4.2987 2.0016,0 3.0981,-1.4625 2.6868,-3.5834 -1.1215,-5.7826 -5.8735,-5.8067 -8.0656,-0.041 -2.5357,6.6694 -3.6239,7.0116 -19.4582,6.1201 -14.7967,-0.8332 -17.3375,-4.0735 -3.9668,-5.059 9.5428,-0.7033 13.0914,-4.4583 6.706,-7.0961 -2.1187,-0.8753 -15.8087,-2.0963 -30.422,-2.7136 -26.397,-1.115 -26.5602,-1.0923 -25.1103,3.4759 1.3526,4.2617 0.7018,4.5999 -8.8949,4.6215 -5.6949,0.013 -15.1076,1.4651 -20.9172,3.2275 -7.8984,2.3961 -12.5067,2.6643 -18.2697,1.0634 -4.2387,-1.1774 -11.0921,-2.1678 -15.2297,-2.2007 -8.1301,-0.064 -15.2295,-4.6318 -19.1753,-12.3358 -4.7793,-9.3316 4.4033,-28.1207 9.6188,-19.6817 0.9628,1.5578 2.1607,1.6203 3.5935,0.1872 2.5705,-2.5704 0.3829,-6.8226 -3.51,-6.8226 -3.7885,0 -10.6138,-17.5571 -7.5592,-19.4451 1.2614,-0.7795 17.9416,-2.1182 37.0673,-2.975 19.1257,-0.8566 39.1264,-1.939 44.4461,-2.4052 20.1052,-1.7621 56.283,-2.0602 57.2646,-0.4719 0.5623,0.9097 -2.2049,1.6541 -6.1492,1.6541 -3.9442,0 -9.0792,1.3347 -11.411,2.9662 -3.0431,2.1291 -12.2982,3.0289 -32.7928,3.188 -35.2904,0.2741 -37.7413,1.2976 -35.7683,14.9374 0.8014,5.5409 2.3984,11.2562 3.5488,12.7011 1.4223,1.7861 0.9609,3.7576 -1.4418,6.1602 -4.0805,4.0806 -3.4178,8.1155 1.4891,9.0675 1.9178,0.3721 4.0111,-1.2668 4.8023,-3.7597 1.1671,-3.6774 2.1301,-4.0301 5.7358,-2.1003 3.3793,1.8085 5.2105,1.5252 8.3178,-1.2869 2.1915,-1.9833 5.0647,-2.9384 6.3848,-2.1225 4.508,2.7861 27.9618,3.6959 27.9618,1.0846 0,-1.3597 2.7634,-0.472 6.2425,2.0054 7.0912,5.0493 11.1178,5.5696 14.778,1.9094 1.9482,-1.9482 3.7436,-1.8895 7.7477,0.2534 6.0194,3.2216 10.8071,1.2448 8.9167,-3.6817 -2.2957,-5.9824 1.2583,-21.9627 5.3743,-24.1655 3.2426,-1.7354 4.5852,-0.5791 8.3444,7.1865 2.4642,5.0901 4.4802,11.4014 4.4802,14.0251 0,2.6238 1.5311,7.1071 3.4023,9.963 3.8957,5.9455 2.673,11.9248 -4.0099,19.6106 -5.4423,6.2592 -10.1393,6.6475 -10.1393,0.8382 z m -143.3115,-13.7608 c 1.3437,-3.5015 -0.4616,-5.9826 -3.1458,-4.3236 -2.4415,1.5089 -2.386,7.3375 0.069,7.3375 1.0558,0 2.4398,-1.3563 3.076,-3.0139 z m -376.759,8.4815 c -2.9676,-3.5759 -1.2714,-7.6169 3.1971,-7.6169 3.4088,0 8.0479,7.3047 5.9631,9.3895 -2.3059,2.3058 -6.4393,1.5059 -9.1602,-1.7726 z m -23.4175,-16.551 c -4.1849,-1.5552 -4.608,-2.4405 -2.4236,-5.0726 1.4555,-1.7536 4.4963,-3.1884 6.7574,-3.1884 4.8992,0 14.7068,-6.0536 14.7068,-9.0777 0,-1.2188 -2.3666,-1.5412 -5.5144,-0.7512 -4.4059,1.1058 -6.7977,0.01 -11.8978,-5.4492 -8.0076,-8.5722 -7.061,-11.589 3.6366,-11.589 7.8944,0 8.4022,-0.388 8.4022,-6.4193 0,-4.8747 -1.4146,-7.0971 -5.8795,-9.237 -12.9883,-6.2252 -23.1219,-28.6233 -15.7265,-34.7608 1.8921,-1.5704 3.8166,-2.4756 4.2766,-2.0116 0.4601,0.464 3.7678,4.5355 7.3505,9.0479 3.5828,4.5123 10.9783,11.6129 16.4344,15.779 8.6366,6.5945 9.7523,8.3394 8.6223,13.4843 -0.8738,3.9779 -0.2129,6.8102 2.0215,8.6647 1.8259,1.5153 3.3197,4.7062 3.3197,7.091 0,2.3848 1.6389,5.5343 3.642,6.9991 3.3234,2.4301 3.35,3.1088 0.3028,7.7597 -2.5456,3.8854 -2.7752,5.9906 -0.9662,8.8581 3.4515,5.4711 -0.9886,11.4468 -7.9435,10.6908 -3.0025,-0.3263 -6.0907,0.4288 -6.8627,1.678 -1.4399,2.3296 -12.6599,1.0716 -22.2586,-2.4958 z m 504.7992,-22.1051 c 0,-1.7034 0.9005,-3.6537 2.0009,-4.3338 2.5554,-1.5793 5.1254,2.4455 3.3726,5.2817 -1.9765,3.1979 -5.3735,2.5987 -5.3735,-0.9479 z m -164.4271,-48.4877 c 0,-2.2681 2.2917,-3.224 7.7285,-3.224 4.2508,0 9.2823,-1.289 11.1812,-2.8645 1.8988,-1.5752 5.1915,-2.3277 7.317,-1.672 5.677,1.7513 34.9041,2.1552 36.5541,0.5051 2.7255,-2.7256 -2.9298,-5.6805 -11.322,-5.9158 -4.6592,-0.1307 -16.8708,-0.038 -27.1365,0.2048 -17.263,0.4091 -28.7153,-1.924 -23.9378,-4.8768 2.2057,-1.3631 27.7788,-2.2509 50.847,-1.765 14.0078,0.2949 22.3656,2.7051 25.3732,7.3171 1.8965,2.9078 15.9726,0.01 20.1269,-4.1461 2.3891,-2.3891 5.3852,-2.9595 10.2786,-1.9569 3.7986,0.7782 11.7428,1.8563 17.6535,2.3957 33.7103,3.0762 12.4178,12.0932 -37.6141,15.9287 -60.0598,4.6043 -87.0496,4.626 -87.0496,0.07 z m 328.7854,-7.4132 c -4.0996,-1.7129 -7.4538,-3.7109 -7.4538,-4.44 0,-3.1317 4.6531,-9.6406 6.8918,-9.6406 4.3742,0 10.3031,6.9945 10.3031,12.1547 0,5.9343 -0.1003,5.9541 -9.7411,1.9259 z m -557.6938,0.9651 c 0,-1.1822 0.9672,-2.1494 2.1494,-2.1494 1.1821,0 2.1493,0.9672 2.1493,2.1494 0,1.1821 -0.9672,2.1494 -2.1493,2.1494 -1.1822,0 -2.1494,-0.9673 -2.1494,-2.1494 z m 310.0337,-11.2842 c 0.4851,-1.4778 4.1927,-2.9583 8.2392,-3.29 l 7.3574,-0.6032 -5.3735,3.0792 c -6.8292,3.9134 -11.359,4.274 -10.2231,0.814 z m 219.8346,-11.8217 c -0.818,-2.0688 -2.0294,-18.8857 -2.692,-37.3711 -1.1747,-32.7746 -1.09,-33.6711 3.4067,-36.0777 2.5362,-1.3573 4.6114,-4.2611 4.6114,-6.4529 0,-2.1917 1.9148,-6.2684 4.255,-9.0592 3.6373,-4.3374 4.5736,-4.606 6.4488,-1.8501 5.2902,7.7755 6.8551,19.8977 4.2736,33.1075 -1.4085,7.2072 -3.3667,19.8746 -4.3518,28.1497 -2.1616,18.158 -5.3022,29.1884 -8.9744,31.5192 -4.0381,2.5631 -5.3307,2.1989 -6.9773,-1.9654 z m -641.2167,-38.4817 c -3.626,-40.8437 -4.4403,-261.2689 -0.9696,-262.4261 6.4836,-2.1616 7.3693,12.054 8.2693,132.7193 0.4982,66.7918 1.3158,131.5955 1.8168,144.0081 0.8803,21.8086 0.7835,22.4126 -2.8771,17.9393 -2.811,-3.4349 -4.4206,-11.7519 -6.2394,-32.2406 z m 572.0069,-7.7996 c 1.0836,-21.8156 3.1557,-33.7828 5.8495,-33.7828 2.4227,0 1.9539,49.25 -0.5318,55.8837 -3.7687,10.0575 -6.3765,-0.7812 -5.3177,-22.1009 z m -545.1723,5.5169 c -0.7355,-10.3844 -0.7237,-58.8279 0.026,-107.6523 1.1479,-74.758 1.8237,-88.3112 4.2804,-85.8546 2.3615,2.3614 3.0113,22.5517 3.4109,105.9667 0.2714,56.6772 -0.2987,104.2743 -1.267,105.7713 -3.4168,5.2824 -5.1278,0.4469 -6.4505,-18.2311 z m 645.5036,-45.2105 c 0,-2.0688 1.4511,-11.9828 3.2211,-22.0311 4.1617,-23.6261 4.0918,-49.0785 -0.1918,-69.7913 -1.8786,-9.0843 -2.8019,-17.1307 -2.0515,-17.8809 0.7503,-0.7503 3.4963,0 6.1025,1.6578 2.6061,1.662 11.9924,6.7822 20.8585,11.378 8.8662,4.5959 17.0392,9.2446 18.1622,10.3304 1.1231,1.0858 3.7046,1.9742 5.7366,1.9742 2.0321,0 6.433,1.354 9.7797,3.009 11.4282,5.6512 21.4318,7.7378 36.3289,7.5779 l 14.8929,-0.16 -18.2697,-4.228 c -10.0483,-2.3253 -21.4131,-4.7773 -25.2551,-5.4485 -3.842,-0.6714 -6.9855,-2.1958 -6.9855,-3.3875 0,-1.43 5.6635,-1.5328 16.6577,-0.3022 9.1617,1.0256 26.525,1.8646 38.585,1.8646 13.8514,0 21.1738,0.7521 19.8817,2.0419 -3.6774,3.6707 -2.1627,5.4809 4.5863,5.4809 3.7492,0 15.867,-4.7438 27.8787,-10.9138 24.411,-12.539 38.3255,-25.927 48.1338,-46.3126 3.3419,-6.9455 8.4142,-16.9808 11.2718,-22.3005 10.1617,-18.9168 13.3906,-27.237 20.0322,-51.6189 3.6981,-13.5761 9.1044,-33.3889 12.0137,-44.0282 24.1797,-88.424 30.5651,-196.8161 15.7011,-266.5225 -3.4717,-16.2806 -14.6293,-47.6876 -22.6978,-63.8903 -3.9589,-7.9501 -7.1979,-16.3487 -7.1979,-18.6638 0,-6.2662 -18.0331,-22.6184 -34.4667,-31.2541 -19.5887,-10.2936 -54.5845,-19.6254 -61.6039,-16.4271 -2.8338,1.2912 -7.6905,2.3475 -10.7927,2.3475 -3.1023,0 -7.1674,1.331 -9.0336,2.9577 -2.1131,1.8418 -10.8267,3.3579 -23.0947,4.0186 -16.0787,0.8658 -20.3251,0.4371 -23.094,-2.3319 -4.8419,-4.8419 -18.1976,-0.8741 -38.4552,11.4247 -8.8086,5.3479 -17.1023,9.7234 -18.4302,9.7234 -1.4541,0 -2.4146,-4.1407 -2.4146,-10.4094 0,-5.7252 -0.6238,-22.0106 -1.3862,-36.1899 -1.2667,-23.5586 -1.0536,-25.9081 2.4738,-27.2617 2.5283,-0.9702 5.2528,0.012 7.8967,2.8517 5.165,5.5438 13.2946,9.72 25.1098,12.8988 8.4467,2.2724 9.8353,2.0913 14.0058,-1.8267 5.89,-5.5335 32.1792,-9.8245 49.2578,-8.0403 10.2883,1.0749 14.7502,0.3699 25.6257,-4.0493 7.2426,-2.9429 13.9059,-5.3507 14.8072,-5.3507 0.9014,0 4.3617,-1.1217 7.6897,-2.4926 l 6.0507,-2.4927 -6.4482,-1.2826 c -7.8013,-1.5517 -9.5046,-8.0793 -3.8632,-14.8056 3.6905,-4.4004 5.7513,-4.6201 46.1112,-4.9145 23.2364,-0.1693 43.2377,0.3036 44.4474,1.0513 1.4272,0.8819 0.728,5.7167 -1.9908,13.7676 l -4.1902,12.4081 10.2531,10.6709 c 5.6392,5.8689 15.5557,20.0985 22.0367,31.6211 6.4809,11.5226 13.0096,20.9503 14.5082,20.9503 1.4987,0 2.7247,1.4078 2.7247,3.1285 0,1.7208 2.3044,6.5244 5.121,10.6748 6.9374,10.2228 23.4882,52.1274 28.9297,73.2464 7.3394,28.4853 9.2596,39.7197 11.1015,64.9514 0.9681,13.2622 2.991,32.809 4.4952,43.4372 2.1987,15.534 2.2087,23.2405 0.051,39.2932 -1.4761,10.9832 -4.0607,32.0596 -5.7437,46.8365 -3.3889,29.7569 -5.5977,43.2005 -10.7708,65.556 -1.9149,8.2751 -4.1974,18.4308 -5.0722,22.5684 -0.8748,4.1376 -3.6889,12.24 -6.2536,18.0056 -2.5647,5.7655 -4.6631,12.7306 -4.6631,15.478 0,7.9083 -5.2977,26.2275 -16.2077,56.0454 -5.5566,15.1865 -11.8489,32.448 -13.9833,38.3588 -2.1343,5.9107 -10.7227,25.6621 -19.0854,43.892 -8.3627,18.2298 -15.2048,34.3501 -15.2048,35.8228 0,1.4729 1.2067,3.0801 2.6815,3.5717 1.9821,0.6607 1.5742,2.9506 -1.5634,8.7766 -2.3348,4.3356 -4.9924,7.8828 -5.9057,7.8828 -0.9133,0 -1.6606,1.9121 -1.6606,4.2491 0,2.3371 -2.3604,5.7958 -5.2453,7.6861 -2.885,1.8903 -5.5448,5.5397 -5.9108,8.1098 -0.937,6.5795 -9.9881,7.1098 -21.4585,1.2573 -17.499,-8.9283 -30.7372,-10.9075 -80.6865,-12.0637 -41.959,-0.9711 -48.1639,-0.6862 -51.2011,2.351 -1.9008,1.9008 -5.1925,3.456 -7.3147,3.456 -4.0804,0 -22.8566,6.7912 -33.0852,11.9667 -3.3467,1.6934 -10.7975,3.079 -16.5573,3.079 -8.6592,0 -11.141,0.9186 -14.3341,5.3058 -4.5028,6.1866 -11.3859,7.2023 -11.3817,1.6796 z m -32.0447,-15.3992 c 1.4555,-4.8578 3.8925,-9.8666 5.4156,-11.1307 4.0316,-3.3459 1.2765,12.9915 -3.0262,17.9456 -4.6915,5.4017 -5.4238,3.3131 -2.3894,-6.8149 z m -14.1277,-83.472 c -1.0427,-34.3622 -0.813,-49.973 0.7354,-49.973 1.2385,0 2.8584,3.627 3.5998,8.0602 2.8985,17.3293 3.9565,18.8647 12.5238,18.1745 6.8699,-0.5535 8.1413,0.1177 10.1765,5.3734 2.1873,5.6483 1.1578,34.9693 -1.5513,44.1809 -0.6122,2.0817 -3.9322,5.2428 -7.3778,7.0246 -3.6815,1.9037 -6.8429,5.6607 -7.6669,9.1112 -1.7442,7.3037 -5.279,11.9776 -7.3544,9.7242 -0.8628,-0.9367 -2.2511,-24.1909 -3.0851,-51.676 z m 129.995,-5.7549 c -16.1607,-3.9848 -18.4342,-4.8268 -34.1778,-12.6571 -7.5673,-3.7638 -16.9936,-9.8552 -20.9474,-13.5366 l -7.1885,-6.6934 0.1269,-83.5803 c 0.069,-45.9692 -1.1199,-127.5887 -2.644,-181.3769 -1.524,-53.7881 -2.729,-111.8212 -2.6777,-128.9625 0.088,-29.2094 0.4425,-31.8444 5.6539,-41.9737 8.9059,-17.3102 27.5744,-33.8591 52.1825,-46.2576 l 21.4937,-10.8295 29.0165,0.037 c 30.8472,0.04 50.6754,3.8585 69.5372,13.3931 25.5651,12.9233 48.3963,50.4589 58.6215,96.3773 12.8934,57.9001 14.8652,100.6547 7.2358,156.9044 -7.5215,55.4546 -8.7019,63.0767 -13.1475,84.9003 -9.6003,47.1264 -19.8046,76.5337 -40.2179,115.9018 -18.4554,35.5922 -36.0212,51.184 -65.8197,58.4234 -14.5735,3.5405 -42.544,3.5063 -57.0475,-0.07 z m -95.4197,-27.8852 c -10.1021,-24.1775 -9.812,-84.0382 0.4072,-84.0382 2.136,0 2.959,8.2528 3.5364,35.4647 0.4139,19.5056 1.4687,40.0589 2.3442,45.6742 1.9171,12.2949 -1.6708,13.9494 -6.2878,2.8993 z m -636.4801,-29.4009 c -0.7996,-3.641 -0.7033,-14.5221 0.2143,-24.1804 1.5445,-16.258 1.79,-16.9229 3.3087,-8.9632 2.3294,12.2078 2.2667,39.7635 -0.091,39.7635 -1.0883,0 -2.6329,-2.979 -3.4326,-6.6199 z m 628.7299,-63.1618 c 0,-0.5511 1.6199,-4.3988 3.5998,-8.5506 3.3859,-7.1005 3.3772,-7.7946 -0.1473,-11.689 -3.6304,-4.0115 -3.4583,-4.2054 5.5351,-6.2327 5.1051,-1.1508 10.9747,-2.7976 13.0434,-3.6595 5.8944,-2.4557 4.6893,4.2926 -2.6791,15.0021 -8.2238,11.953 -12.4411,16.1314 -16.2814,16.1314 -1.6887,0 -3.0705,-0.4509 -3.0705,-1.0017 z m -14.5217,-18.88 c 1.0528,-3.206 12.3723,-4.9753 12.3723,-1.934 0,2.4477 -3.6847,4.2086 -9.3139,4.451 -2.2379,0.096 -3.5594,-0.9912 -3.0584,-2.517 z m 35.2905,-36.5394 c -0.6551,-2.6599 -1.8413,-12.1189 -2.6361,-21.0202 -1.1644,-13.0434 -0.8188,-16.7036 1.7817,-18.8619 2.6415,-2.1922 3.5021,-1.9856 4.7452,1.1386 2.162,5.4338 4.1257,36.132 2.5705,40.1849 -1.8763,4.8896 -5.0781,4.1753 -6.4613,-1.4414 z M 1420.2298,1876.53 c 0.5167,-91.8881 0.8366,-99.4329 4.2435,-100.0887 5.5167,-1.062 6.7575,7.5699 4.0321,28.0501 -1.3093,9.839 -2.399,45.9045 -2.4215,80.1453 -0.043,65.1172 -1.338,91.2728 -4.5198,91.2728 -1.072,0 -1.6507,-43.1046 -1.3343,-99.3795 z m 680.3449,49.8396 c 0.7467,-6.4007 2.127,-7.7169 5.0391,-4.8049 2.9077,2.9076 0.2832,11.9138 -3.1184,10.7013 -1.3774,-0.4909 -2.2417,-3.1443 -1.9207,-5.8964 z m 3.3215,-116.365 c 0.6861,-1.7146 1.1955,-1.2053 1.2986,1.2986 0.093,2.2658 -0.4147,3.5353 -1.1289,2.8211 -0.7141,-0.7142 -0.7905,-2.5681 -0.1696,-4.1197 z m -714.4078,-51.2538 c -2.2827,-1.2217 -6.3298,-6.2997 -8.9935,-11.2842 -7.5247,-14.0811 -6.6996,-51.8981 2.7536,-126.2039 7.0765,-55.6228 13.3274,-120.1146 13.3725,-137.9651 0.049,-19.4236 -0.456,-21.8953 -7.5089,-36.7467 -4.1588,-8.7574 -10.9871,-20.9024 -15.1739,-26.989 -4.1869,-6.0865 -8.2484,-13.9618 -9.0256,-17.5004 -0.7772,-3.5387 -2.3059,-6.9857 -3.397,-7.66 -1.0914,-0.6744 -1.9841,-7.3759 -1.9841,-14.8921 0,-16.2988 5.0311,-29.4067 15.9079,-41.4461 8.8959,-9.8467 35.9497,-23.9588 58.861,-30.7037 l 15.661,-4.6106 8.7648,-17.5292 c 27.8837,-55.7654 66.9131,-80.9427 112.5186,-72.5839 11.1258,2.039 13.9556,3.5927 20.6127,11.3161 7.0065,8.129 12.7026,9.8135 12.7026,3.7565 0,-3.9647 16.6031,-24.6014 28.6533,-35.6148 25.7776,-23.5592 64.5563,-39.8388 111.8087,-46.9381 30.7596,-4.6214 60.3737,-3.4645 87.3718,3.4133 22.4587,5.7215 31.049,9.9117 51.2723,25.0098 18.7053,13.9647 29.4827,18.9408 45.2752,20.9042 6.4061,0.7964 15.8226,3.8949 20.9258,6.8855 8.4875,4.974 10.6184,5.3119 24.9995,3.9642 27.3485,-2.5626 66.1711,6.0063 93.9585,20.7386 24.2964,12.8816 55.6456,44.2128 55.8293,55.7974 0.03,1.8872 1.6636,6.6571 3.6306,10.5999 2.5051,5.0216 3.5708,12.6846 3.5584,25.5854 -0.017,16.8166 -0.7005,19.8119 -7.8749,34.4763 -8.9993,18.3939 -9.5336,22.717 -3.5904,29.0433 3.9243,4.1771 3.9992,4.9241 0.9326,9.3022 -1.8338,2.618 -7.3615,6.8148 -12.2838,9.326 -16.2909,8.311 -58.715,2.8004 -100.354,-13.0353 -17.4183,-6.6243 -27.5202,-5.942 -40.0954,2.7082 -18.5468,12.7579 -22.9816,14.3013 -41.097,14.3013 -16.9291,0 -36.2002,-5.4684 -49.1317,-13.9415 -7.0429,-4.6146 -7.8925,-4.3672 -22.8433,6.6513 -24.9573,18.3934 -44.4902,24.4852 -78.5101,24.4852 -19.3003,0 -23.8483,-0.7291 -34.2604,-5.4916 -21.3753,-9.7773 -21.3182,-9.7853 -57.5734,7.9864 -35.6862,17.4928 -130.3657,10.5131 -145.4896,-10.7252 -1.5496,-2.1758 -7.0041,-6.7128 -12.1213,-10.0821 l -9.3042,-6.1259 -7.7905,4.159 c -4.2848,2.2875 -10.2537,6.1958 -13.2643,8.6853 -3.0106,2.4894 -16.3399,8.1614 -29.6208,12.6045 -39.0035,13.0484 -49.0497,21.6774 -58.5734,50.3105 -8.1277,24.436 -9.3065,54.7924 -6.1449,158.2431 3.4296,112.2152 3.3762,117.663 -1.2199,124.6777 -3.8701,5.9063 -5.9619,6.4469 -12.1444,3.1382 z m 709.054,-17.1044 c 0.4655,-9.3939 -0.5003,-14.8001 -3.7997,-21.2673 -2.4331,-4.7693 -4.4238,-11.4932 -4.4238,-14.942 0,-3.4488 -1.3887,-7.4231 -3.086,-8.8317 -3.2575,-2.7036 -6.7123,-14.6759 -4.7897,-16.5985 2.2579,-2.2579 16.5435,11.2788 18.6598,17.6815 2.4209,7.324 3.1966,53.3418 0.9603,56.9603 -2.773,4.4869 -4.1379,-0.5531 -3.5209,-13.0023 z m 2.2977,-79.0083 c -2.6608,-6.9322 -0.069,-22.3063 3.9871,-23.6492 1.9802,-0.6555 2.6866,3.114 2.6866,14.3353 0,15.9578 -2.6852,19.7054 -6.6737,9.3139 z m -5.4063,-57.7829 c -4.0641,-9.7268 -4.1679,-38.2213 -0.198,-54.3868 2.8042,-11.4186 7.8472,-17.2922 8.1127,-9.4491 0.134,3.9565 0.078,70.1016 -0.059,71.1086 -0.041,0.2955 -1.0902,0.5373 -2.3327,0.5373 -1.2426,0 -3.7276,-3.5145 -5.5223,-7.81 z"
       id="path5492"
       inkscape:connector-curvature="0" />
    <flowRoot
       xml:space="preserve"
       id="flowRoot5506"
       style="fill:black;stroke:none;stroke-opacity:1;stroke-width:1px;stroke-linejoin:miter;stroke-linecap:butt;fill-opacity:1;font-family:sans-serif;font-style:normal;font-weight:normal;font-size:40px;line-height:125%;letter-spacing:0px;word-spacing:0px"><flowRegion
         id="flowRegion5508"><rect
           id="rect5510"
           width="211.02437"
           height="150.73169"
           x="384.36581"
           y="357.46881" /></flowRegion><flowPara
         id="flowPara5512"></flowPara></flowRoot>  </g>
  <g
     inkscape:groupmode="layer"
     id="layer4"
     inkscape:label="Text">
    <text
       xml:space="preserve"
       style="font-style:normal;font-variant:normal;font-weight:normal;font-stretch:normal;font-size:687.5px;line-height:125%;font-family:'.Savoye LET CC.';-inkscape-font-specification:'.Savoye LET CC.';letter-spacing:-27.03003311px;word-spacing:0px;display:inline;fill:#000000;fill-opacity:1;stroke:#000000;stroke-width:20;stroke-linecap:butt;stroke-linejoin:miter;stroke-opacity:1;stroke-miterlimit:4;stroke-dasharray:none"
       x="1842.2289"
       y="796.41937"
       id="text5502"
       sodipodi:linespacing="125%"><tspan
         sodipodi:role="line"
         id="tspan5504"
         x="1817.2289"
         y="796.41937"
         style="font-size:687.5px;text-align:center;letter-spacing:-50px;word-spacing:20px;writing-mode:lr-tb;text-anchor:middle;stroke-width:20;stroke-miterlimit:4;stroke-dasharray:none;stroke:#000000;stroke-opacity:1"
         dx="-100">Ceda el Vaso</tspan></text>
    <text
       xml:space="preserve"
       style="font-style:normal;font-variant:normal;font-weight:normal;font-stretch:normal;font-size:40px;line-height:125%;font-family:'.Savoye LET CC.';-inkscape-font-specification:'.Savoye LET CC.';letter-spacing:0px;word-spacing:0px;fill:#000000;fill-opacity:1;stroke:#000000;stroke-width:10;stroke-linecap:butt;stroke-linejoin:miter;stroke-opacity:1;stroke-miterlimit:4;stroke-dasharray:none;"
       x="1249.0225"
       y="3513.4688"
       id="text5519"
       sodipodi:linespacing="125%"><tspan
         sodipodi:role="line"
         id="tspan5521"
         x="1249.0225"
         y="3513.4688"
         style="font-style:normal;font-variant:normal;font-weight:normal;font-stretch:normal;font-size:250px;font-family:'.Savoye LET CC.';-inkscape-font-specification:'.Savoye LET CC.';stroke-width:10;stroke-miterlimit:4;stroke-dasharray:none;stroke:#000000;stroke-opacity:1;">Since 2007</tspan></text>
  </g>
</svg>
